<svg xmlns="http://www.w3.org/2000/svg" viewBox="0 0 512 512" width="512" height="512">
  <defs>
    <linearGradient id="bgGrad" x1="0%" y1="0%" x2="100%" y2="100%">
      <stop offset="0%" stop-color="#0f172a" />
      <stop offset="100%" stop-color="#1e293b" />
    </linearGradient>
    <linearGradient id="goldGrad" x1="0%" y1="0%" x2="100%" y2="100%">
      <stop offset="0%" stop-color="#fef08a" />
      <stop offset="30%" stop-color="#f59e0b" />
      <stop offset="70%" stop-color="#d97706" />
      <stop offset="100%" stop-color="#b45309" />
    </linearGradient>
    <filter id="glow" x="-20%" y="-20%" width="140%" height="140%">
      <feGaussianBlur stdDeviation="12" result="blur" />
      <feComposite in="SourceGraphic" in2="blur" operator="over" />
    </filter>
  </defs>

  <!-- Background Circle -->
  <rect width="512" height="512" rx="128" fill="url(#bgGrad)"/>
  <circle cx="256" cy="256" r="230" fill="none" stroke="#f59e0b" stroke-width="4" stroke-opacity="0.3"/>

  <!-- Golden Trophy & Crown Visual -->
  <g transform="translate(106, 80) scale(1.18)" filter="url(#glow)">
    <!-- Base -->
    <path d="M 90 230 L 160 230 L 150 200 L 100 200 Z" fill="url(#goldGrad)" />
    <rect x="70" y="230" width="110" height="20" rx="6" fill="#f59e0b" />

    <!-- Stem -->
    <path d="M 115 160 Q 125 180 125 200 L 125 200 Q 125 180 135 160 Z" fill="url(#goldGrad)" />

    <!-- Cup Body -->
    <path d="M 65 50 L 185 50 Q 185 130 125 160 Q 65 130 65 50 Z" fill="url(#goldGrad)" />

    <!-- Handles -->
    <path d="M 65 65 C 30 65 30 115 72 120" fill="none" stroke="url(#goldGrad)" stroke-width="12" stroke-linecap="round" />
    <path d="M 185 65 C 220 65 220 115 178 120" fill="none" stroke="url(#goldGrad)" stroke-width="12" stroke-linecap="round" />

    <!-- Star Emblem on Cup -->
    <polygon points="125,75 129,88 142,88 131,96 135,109 125,100 115,109 119,96 108,88 121,88" fill="#ffffff" />
  </g>
</svg>
